<svg width="32" height="24" viewBox="0 0 32 24" fill="none" xmlns="http://www.w3.org/2000/svg">
<path d="M1.99878 10.5C1.17035 10.5 0.498779 11.1716 0.498779 12C0.498779 12.8284 1.17035 13.5 1.99878 13.5L1.99878 10.5ZM30.8776 13.0607C31.4634 12.4749 31.4634 11.5251 30.8776 10.9393L21.3317 1.3934C20.7459 0.807609 19.7961 0.807609 19.2104 1.3934C18.6246 1.97918 18.6246 2.92893 19.2104 3.51472L27.6956 12L19.2104 20.4853C18.6246 21.0711 18.6246 22.0208 19.2104 22.6066C19.7961 23.1924 20.7459 23.1924 21.3317 22.6066L30.8776 13.0607ZM1.99878 13.5L29.817 13.5L29.817 10.5L1.99878 10.5L1.99878 13.5Z" fill="white"/>
</svg>
